<svg width="647" height="653" viewBox="0 0 647 653" fill="none" xmlns="http://www.w3.org/2000/svg">
<path d="M639.35 250.844C639.35 250.844 639.35 255.809 635.092 255.809C649.284 250.135 610.966 255.809 610.966 255.809C610.966 255.809 605.999 255.809 605.999 250.844C590.388 235.949 598.903 179.917 598.903 179.917C609.547 196.23 598.903 179.918 598.903 176.372C579.034 162.186 598.903 176.372 594.645 176.372C579.034 182.755 412.987 247.299 412.987 247.299C427.179 257.228 412.987 247.298 412.987 250.844L412.987 448.73L412.987 452.986C471.85 482.426 533.391 506.176 596.774 523.913C591.807 538.098 602.451 523.912 602.451 518.947C586.84 508.308 608.128 448.02 608.128 448.02C624.448 462.206 608.128 443.765 613.095 443.765C618.062 443.765 637.221 443.765 637.221 443.765C656.38 435.963 641.479 443.765 641.479 448.02C626.577 443.765 641.479 648.745 641.479 648.745C627.996 635.978 641.479 653 637.221 653C637.221 639.524 613.095 653 613.095 653C592.516 636.687 608.128 653 608.128 648.745C607.073 623.107 604.704 597.538 601.032 572.142C614.514 563.631 601.032 572.143 601.032 568.597C601.032 565.051 8.51519 333.119 8.51519 333.119C-7.09602 333.119 8.51519 333.12 8.51519 329.574C2.83839 343.05 8.51519 306.877 8.51519 306.877C-10.644 292.691 8.51519 306.878 8.51519 303.331C-3.54802 306.878 600.322 86.2954 600.322 86.2954C600.322 86.2954 600.322 86.2941 600.322 82.7478C600.322 79.2014 608.128 11.8209 608.128 11.8209C600.322 -1.65516 608.128 7.5655 613.095 7.5655C601.032 -9.45693 637.221 7.5655 637.221 7.5655C637.221 7.5655 641.479 7.56602 641.479 12.5309C634.344 91.7817 633.632 171.478 639.35 250.844V250.844ZM142.63 340.922C148.306 340.922 142.63 344.468 142.63 344.468L364.025 431.709C364.025 431.709 370.411 431.707 370.411 428.161C370.411 424.615 370.411 260.775 370.411 260.775C370.411 260.775 370.411 254.391 364.025 255.809C357.639 257.228 141.21 340.922 141.21 340.922L142.63 340.922Z" fill="#EB6029"/>
</svg>
