<svg width="640" height="618" viewBox="0 0 640 618" fill="none" xmlns="http://www.w3.org/2000/svg">
<path d="M-1.1828e-05 347.408L-1.46172e-05 283.598C9.93453 269.418 638.649 -2.45102e-05 638.649 -2.45102e-05C640.45 30.9333 640.45 61.9449 638.649 92.8782C578.272 126.171 515.117 154.163 449.893 176.539C449.893 176.539 449.893 445.958 449.893 445.958C509.51 478.462 572.278 504.83 637.23 524.657C623.038 518.985 637.23 617.535 637.23 617.535C625.876 631.006 -1.1828e-05 347.408 -1.1828e-05 347.408ZM367.578 214.826L139.084 316.212C142.632 311.958 367.578 411.217 367.578 411.217L367.578 214.116L367.578 214.826Z" fill="#EB6029"/>
</svg>
