<svg width="578" height="688" viewBox="0 0 578 688" fill="none" xmlns="http://www.w3.org/2000/svg">
<path d="M577.825 452.985C579.102 484.425 573.395 515.758 561.115 544.73C548.834 573.703 530.284 599.595 506.8 620.547C483.1 643.086 454.906 660.366 424.062 671.255C393.218 682.145 360.421 686.398 327.818 683.737C308.38 689.271 287.804 689.42 268.288 684.167C248.772 678.915 231.051 668.459 217.02 653.917C176.536 642.557 168.013 614.157 150.967 594.277C150.967 607.057 145.285 594.277 145.285 594.277C145.285 612.737 127.529 615.577 118.296 631.197C110.483 631.197 99.1192 662.437 90.5962 676.637C101.96 693.678 79.232 676.637 79.232 676.637C74.0461 653.254 74.0461 629.02 79.232 605.637C64.3169 578.656 79.232 557.356 79.232 526.116C87.0447 515.465 79.232 100.111 79.232 100.111C79.232 86.6209 79.232 61.7709 79.232 61.7709C79.232 40.4706 79.232 33.3704 71.4193 26.9804C63.6066 20.5903 55.0839 16.3304 37.3278 14.9104C49.4019 33.3706 2.52532 14.9104 2.52532 14.9104C-3.15665 29.1105 2.52532 0 2.52532 0H258.924C274.55 4.97005 258.924 213.002 258.924 213.002C260.519 236.642 260.519 260.363 258.924 284.003C267.447 255.603 276.68 259.153 291.595 247.083C309.352 252.763 334.921 228.623 376.115 228.623C403.23 225.242 430.754 229.266 455.765 240.267C480.775 251.268 502.339 268.835 518.164 291.103C552.491 338.591 573.127 394.584 577.825 452.985V452.985ZM391.03 452.985C391.938 436.43 391.938 419.839 391.03 403.284C392.116 388.394 392.116 373.444 391.03 358.554C390.68 331.386 385.634 304.483 376.115 279.033C370.866 270.716 363.787 263.706 355.417 258.539C347.047 253.371 337.608 250.181 327.818 249.213C308.641 257.023 295.147 254.893 286.624 265.543C278.101 276.193 272.419 288.263 270.288 302.463C266.942 322.405 265.279 342.593 265.317 362.814C265.317 399.024 265.317 414.645 265.317 440.915C264.238 461.491 264.238 482.109 265.317 502.685C262.588 520.093 262.588 537.819 265.317 555.226C265.753 582.847 270.794 610.203 280.232 636.167C290.885 648.947 305.8 668.117 327.108 668.117C337.049 667.365 346.58 663.838 354.616 657.939C362.652 652.04 368.87 644.004 372.563 634.747C383.693 608.981 389.259 581.159 388.899 553.096C389.799 538.436 389.799 523.735 388.899 509.076C387.479 501.265 389.609 472.155 391.03 453.695V452.985Z" fill="#EB6029"/>
</svg>
