<svg width="419" height="737" viewBox="0 0 419 737" fill="none" xmlns="http://www.w3.org/2000/svg">
<path d="M182.903 685.944C182.903 678.144 182.903 710.054 182.903 710.054C182.903 710.054 177.932 727.782 167.28 727.782C162.309 743.382 16.0178 727.782 16.0178 727.782C16.0178 727.782 5.36557 723.527 5.36557 716.436C1.81482 722.109 5.36557 685.944 5.36557 685.944C-1.73592 662.544 8.91627 678.853 15.3076 675.308C31.641 684.526 33.0613 660.416 33.0613 646.943C37.3222 653.325 33.0613 76.1111 33.0613 76.1111C33.0613 76.1111 27.3803 52.0013 14.5976 49.1649C1.8149 46.3284 5.36557 43.492 5.36557 36.4009C-6.70696 36.4009 5.36557 13.7094 5.36557 13.7094C12.4671 -6.85469 5.36557 3.0728 5.36557 0.945478C5.36557 -1.18185 11.0468 0.945478 18.1483 0.945478C11.0468 17.255 164.439 0.945478 164.439 0.945478C170.12 16.5459 180.062 5.90932 180.062 16.5459C183.294 62.1082 183.294 107.842 180.062 153.404C206.539 128.88 239.613 112.613 275.222 106.603C295.975 107.82 316.037 114.496 333.372 125.953C350.708 137.41 364.701 153.241 373.933 171.841C409.435 252.47 423.382 340.917 414.411 428.538C427.221 512.538 413.05 598.431 373.933 673.889C363.326 691.024 349.025 705.58 332.071 716.498C315.118 727.415 295.939 734.42 275.932 737C239.825 731.58 206.839 713.476 182.903 685.944V685.944ZM250.367 246.297C250.367 203.751 239.715 189.568 219.831 189.568C199.946 189.568 199.946 189.568 193.555 198.078C187.164 206.587 182.903 210.133 182.903 217.224C182.903 224.315 182.903 624.252 182.903 624.252C182.903 624.252 186.454 636.307 192.135 641.271C197.106 634.179 206.338 648.361 214.86 648.361C223.381 648.361 234.744 642.689 241.135 631.343C248.316 618.885 251.535 604.541 250.367 590.215C248.947 596.597 250.367 246.297 250.367 246.297V246.297Z" fill="#EB6029"/>
</svg>
