<svg width="325" height="329" viewBox="0 0 325 329" fill="none" xmlns="http://www.w3.org/2000/svg">
<path d="M3.84269 202.618C3.84269 202.618 3.84274 200.116 5.98141 200.116C-1.1475 202.975 18.1006 200.116 18.1006 200.116C18.1006 200.116 20.5957 200.116 20.5957 202.618C28.4375 210.122 24.1601 238.353 24.1601 238.353C18.8134 230.134 24.1601 238.352 24.1601 240.139C34.1405 247.286 24.1601 240.139 26.2988 240.139C34.1406 236.923 117.549 204.404 117.549 204.404C110.42 199.401 117.549 204.404 117.549 202.618L117.549 102.917L117.549 100.773C87.9813 85.9402 57.0677 73.9742 25.2294 65.0379C27.7245 57.8909 22.3779 65.0381 22.3779 67.5396C30.2197 72.8998 19.5263 103.275 19.5263 103.275C11.3281 96.1275 19.5263 105.419 17.0312 105.419C14.5361 105.419 4.91205 105.419 4.91205 105.419C-4.71197 109.349 2.7734 105.419 2.7734 103.275C10.2588 105.419 2.7734 2.144 2.7734 2.144C9.54587 8.57629 2.77338 -1.4085e-05 4.91206 -1.39915e-05C4.91206 6.78963 17.0312 -1.34617e-05 17.0312 -1.34617e-05C27.3681 8.21903 19.5263 -0.000100548 19.5263 2.144C20.0561 15.0612 21.2459 27.9433 23.0908 40.7384C16.3183 45.0265 23.0908 40.7379 23.0908 42.5247C23.0908 44.3114 320.723 161.165 320.723 161.165C328.564 161.165 320.723 161.165 320.723 162.951C323.574 156.162 320.723 174.387 320.723 174.387C330.347 181.534 320.723 174.386 320.723 176.173C326.782 174.386 23.4472 285.522 23.4472 285.522C23.4472 285.522 23.4472 285.523 23.4472 287.309C23.4472 289.096 19.5263 323.044 19.5263 323.044C23.4472 329.834 19.5263 325.188 17.0312 325.188C23.0908 333.765 4.91204 325.188 4.91204 325.188C4.91204 325.188 2.77339 325.188 2.77339 322.687C6.35756 282.758 6.71513 242.604 3.84269 202.618V202.618ZM253.354 157.234C250.503 157.234 253.354 155.447 253.354 155.447L142.144 111.493C142.144 111.493 138.936 111.494 138.936 113.28C138.936 115.067 138.936 197.614 138.936 197.614C138.936 197.614 138.936 200.831 142.144 200.116C145.352 199.401 254.067 157.234 254.067 157.234L253.354 157.234Z" fill="white"/>
</svg>
