<svg width="322" height="310" viewBox="0 0 322 310" fill="none" xmlns="http://www.w3.org/2000/svg">
<path d="M322 135.734L322 167.742C317.002 174.855 0.679518 310 0.679518 310C-0.226516 294.483 -0.226515 278.927 0.67952 263.411C31.0567 246.71 62.832 232.669 95.6476 221.445C95.6476 221.445 95.6476 86.2994 95.6476 86.2994C65.6528 69.9947 34.0726 56.7679 1.39359 46.8227C8.53405 49.6679 1.39359 0.23331 1.39359 0.23331C7.10596 -6.52395 322 135.734 322 135.734ZM137.062 202.24L252.024 151.383C250.238 153.516 137.062 103.726 137.062 103.726L137.062 202.596L137.062 202.24Z" fill="white"/>
</svg>
