<svg width="550" height="446" viewBox="0 0 550 446" fill="none" xmlns="http://www.w3.org/2000/svg">
<path d="M206.283 258.512C165.081 199.349 128.046 137.392 95.448 73.0861C67.7391 51.0622 72.0019 38.2765 64.1865 31.172C69.1599 31.172 46.4244 19.8053 33.6357 18.3844C20.847 16.9635 7.34755 18.3844 7.34755 18.3844V3.46344C111.691 9.86616 216.328 9.86616 320.672 3.46344C311.435 -2.9306 320.672 18.3844 320.672 18.3844C320.672 6.3068 295.805 18.3844 295.805 18.3844C271.648 26.9098 280.884 18.3843 277.332 22.647C273.78 26.9097 271.648 28.33 271.648 35.4345C256.017 25.4882 271.648 41.826 271.648 46.0887C271.648 50.3514 275.911 56.7482 281.595 66.6945C268.095 58.1691 327.776 146.976 327.776 146.976C322.092 158.343 387.457 71.6681 387.457 71.6681C411.613 48.9338 403.087 44.6711 403.087 36.1457C418.008 36.1457 395.273 18.3844 379.642 18.3844C376.342 16.7005 372.689 15.8217 368.984 15.8217C365.28 15.8217 361.627 16.7005 358.327 18.3844C372.537 12.7008 358.327 3.46344 358.327 3.46344C409.852 -1.15448 461.688 -1.15448 513.213 3.46344C527.422 -1.5097 513.213 18.3844 513.213 18.3844C521.739 30.4621 503.266 18.3844 503.266 18.3844C503.266 18.3844 491.898 18.3844 482.662 18.3844C482.662 21.9367 464.9 21.9356 457.084 26.1983C449.269 30.461 435.77 42.5394 418.008 62.4319C393.566 97.143 366.487 129.921 337.012 160.474C321.382 160.474 462.058 373.609 462.058 373.609C474.847 383.555 486.214 409.84 493.319 415.523C505.398 433.284 510.371 426.179 523.16 427.6C529.766 428.417 536.447 428.417 543.053 427.6C558.684 438.256 543.053 442.521 543.053 442.521C555.131 433.995 236.124 442.521 236.124 442.521V427.6C239.879 425.345 244.177 424.157 248.557 424.157C252.938 424.157 257.235 425.345 260.991 427.6C266.674 414.101 284.437 419.078 284.437 409.132C295.804 397.764 284.437 392.788 273.779 379.29C284.437 379.29 214.099 275.567 214.099 275.567C202.021 275.567 136.656 374.316 136.656 374.316C131.887 378.804 128.051 384.191 125.368 390.165C122.686 396.139 121.21 402.586 121.025 409.132C132.393 409.132 128.84 425.468 144.471 427.6C152.576 425.128 161.233 425.128 169.338 427.6C168.161 432.503 168.161 437.617 169.338 442.521C114.017 447.16 58.4055 447.16 3.08482 442.521C-3.30954 451.046 3.08482 427.6 3.08482 427.6C-11.8354 427.6 32.2144 427.6 32.2144 427.6C32.2144 416.232 62.055 420.495 71.2913 414.101C71.2913 396.34 90.4744 399.185 101.842 386.397C118.713 369.208 134.158 350.673 148.024 330.98C176.443 294.036 187.811 281.247 206.283 258.512Z" fill="white"/>
</svg>
