<svg width="1512" height="400" viewBox="0 0 1512 400" fill="none" xmlns="http://www.w3.org/2000/svg">
<path d="M289.417 51.6817C297.887 41.017 310.066 33.9365 323.524 31.8522C328.042 31.7647 332.519 32.7147 336.612 34.6286C340.181 40.5775 344.147 40.181 346.725 45.3367C346.725 49.8975 350.691 56.2426 350.691 62.3898C350.691 61.2 350.691 181.367 350.691 181.367C353.666 182.358 351.683 185.729 353.467 187.911C358.425 186.523 356.64 192.67 356.64 195.049C351.683 192.273 356.64 200.998 356.64 200.998C361.201 202.188 355.252 205.559 352.476 205.559C352.476 200.8 316.584 205.559 316.584 205.559C311.955 200.488 309.222 193.973 308.85 187.117C307.066 184.738 308.85 68.1405 308.85 68.1405C304.686 68.1405 306.074 59.4155 300.522 59.4155C300.522 61.0018 294.176 59.4158 292.391 62.1919C290.012 67.3476 289.417 66.1577 289.417 68.9338C285.649 70.7185 289.417 182.953 289.417 182.953C289.417 182.953 290.805 187.514 293.185 189.497C296.952 185.729 295.564 192.075 295.564 193.463C295.564 194.851 295.564 200.998 295.564 200.998C295.564 200.998 294.176 205.559 291.202 205.559C278.99 206.453 266.728 206.453 254.516 205.559C250.175 200.379 247.727 193.875 247.576 187.117C247.576 182.557 247.576 68.1405 247.576 68.1405C249.361 62.7865 245.196 59.8118 240.635 59.8118C237.341 60.6494 234.15 61.8468 231.117 63.3816C231.117 61.7953 230.126 63.3814 229.134 64.3728C232.505 64.3728 229.134 183.35 229.134 183.35C229.134 183.35 230.522 187.712 233.1 189.893C239.842 189.893 235.678 192.67 235.678 194.653C235.678 196.636 235.678 201.395 235.678 201.395C239.446 207.343 234.092 205.956 231.117 205.956C215.263 206.749 199.379 206.749 183.525 205.956C182.696 205.961 181.894 205.661 181.272 205.112C180.65 204.563 180.252 203.804 180.154 202.981C182.137 202.981 180.154 194.653 180.154 194.653C184.517 196.437 181.344 191.48 183.525 189.1C185.264 187.547 186.563 185.564 187.293 183.35C187.293 181.168 187.293 55.8463 187.293 55.8463C191.061 48.5094 185.707 50.0956 182.732 48.9059C179.758 47.7161 180.154 46.5263 180.154 43.9485C175.395 47.7161 180.154 37.405 180.154 37.405C178.766 30.663 181.741 33.4389 185.112 33.4389C198.271 31.6467 211.612 31.6467 224.771 33.4389C231.117 29.8696 229.134 34.8272 229.134 37.405C230.72 34.2323 229.134 50.0956 229.134 50.0956C243.213 41.7672 251.542 31.6543 262.845 31.6543C276.527 29.0765 282.476 39.5857 289.417 51.6817Z" fill="#222220"/>
<path d="M537.617 49.8384C538.609 49.8384 532.66 49.8384 532.66 49.8384C532.66 49.8384 530.28 49.8384 530.082 49.8384C530.082 43.2946 530.082 48.4501 530.082 47.062V37.9411C530.082 30.8025 530.082 35.1641 530.082 34.5692C530.082 33.9743 531.47 34.5693 533.255 33.3795C540.79 36.7505 545.549 29.2151 551.697 23.2662C556.986 18.1814 560.762 11.7289 562.603 4.62633C564.586 6.80758 563.595 0.859283 564.189 0.264395C564.784 -0.330493 566.172 0.264395 568.155 0.264395C570.138 0.264395 576.286 0.264395 576.286 0.264395C578.467 3.83372 579.657 1.65189 579.657 4.62633C580.158 14.3364 580.158 24.0664 579.657 33.7765H587.39C589.175 28.4225 591.753 35.165 591.753 37.9411V47.062C591.753 52.6143 590.365 51.0281 587.39 51.0281C584.416 51.0281 579.657 51.0281 579.657 51.0281C579.657 54.9941 579.657 181.903 579.657 181.903C578.467 190.628 581.64 189.638 585.606 191.621C587.192 190.629 588.778 193.603 589.373 194.991C589.968 196.379 589.373 198.759 589.373 202.328C589.504 203.514 589.504 204.711 589.373 205.897C589.373 207.682 587.985 205.897 586.201 205.897C587.39 201.138 546.541 205.897 546.541 205.897C539.204 203.518 537.419 192.414 537.419 181.507C537.221 178.136 537.617 49.8384 537.617 49.8384Z" fill="#222220"/>
<path d="M686.877 175.197C667.047 195.026 652.373 206.329 642.656 206.329C636.906 207.915 632.742 203.553 628.974 198C624.532 192.024 622.545 184.574 623.422 177.18C624.212 151.323 630.427 125.921 641.665 102.62C642.855 102.62 673.789 96.0762 673.789 96.0762H675.177L662.685 135.735C658.296 146.902 655.622 158.669 654.753 170.636C654.921 173.038 655.526 175.39 656.537 177.576C659.71 181.939 659.314 180.154 661.297 180.154C663.28 180.154 667.84 178.964 671.212 176.386C674.583 173.808 679.738 168.851 686.877 160.919C686.486 165.67 686.486 170.445 686.877 175.197V175.197ZM684.696 46.5022C684.696 66.3318 677.359 76.8414 662.288 76.8414C658.93 77.071 655.56 76.6091 652.388 75.4835C649.216 74.3579 646.309 72.5928 643.846 70.298C648.429 62.363 652.216 53.9936 655.149 45.3125C659.878 48.7239 665.414 50.8427 671.212 51.4596C676.143 51.409 680.906 49.658 684.696 46.5022Z" fill="#222220"/>
<path d="M503.536 175.637C499.57 177.62 495.009 182.181 491.043 183.768C487.077 185.354 483.706 185.948 481.326 185.948C475.179 189.32 469.23 183.569 463.281 179.009C458.752 186.346 452.682 192.611 445.492 197.371C438.301 202.13 430.162 205.27 421.638 206.571C417.131 206.407 412.702 205.339 408.615 203.431C404.527 201.524 400.864 198.816 397.842 195.467C394.471 191.452 391.928 186.809 390.363 181.806C388.797 176.802 388.239 171.538 388.721 166.317C389.403 147.998 396.41 130.48 408.55 116.743C414.7 109.971 422.297 104.671 430.777 101.238C439.257 97.8047 448.401 96.3267 457.53 96.9139C460.165 96.2124 462.916 96.0615 465.611 96.471C468.307 96.8804 470.889 97.8412 473.196 99.2934C474.584 101.475 478.55 102.664 479.343 104.846C480.136 107.027 480.533 109.605 480.533 112.777C480.223 132.754 475.837 152.458 467.644 170.68C469.153 172.788 471.2 174.452 473.572 175.499C475.944 176.545 478.554 176.935 481.128 176.629C489.605 173.826 497.15 168.75 502.941 161.955C502.612 166.523 502.811 171.115 503.536 175.637ZM461.695 105.044C461.695 103.061 458.72 105.044 456.341 105.044C450.986 105.677 445.858 107.571 441.376 110.57C436.895 113.569 433.189 117.587 430.562 122.296C424.547 134.651 421.428 148.214 421.44 161.955C421.026 168.796 422.393 175.628 425.406 181.784C426.522 183.842 428.147 185.579 430.126 186.828C432.105 188.078 434.372 188.8 436.709 188.923C445.083 186 452.123 180.157 456.539 172.465C449.096 163.386 444.907 152.077 444.641 140.341C444.182 133.484 445.512 126.626 448.502 120.438C451.491 114.25 456.038 108.946 461.695 105.044V105.044Z" fill="#222220"/>
<path d="M970.695 119.88C966.531 118.492 970.695 109.37 970.695 109.37C966.531 97.0755 966.134 89.5403 956.616 89.5403C950.468 90.5317 946.304 91.3245 943.925 95.2904C943.925 102.033 939.364 102.826 937.976 106.792C936.588 105.404 937.976 173.023 937.976 173.023C942.537 171.635 937.976 184.921 937.976 184.921C934.01 193.844 937.976 196.62 939.959 198.405C941.942 200.19 944.916 201.379 951.262 201.379C951.262 204.552 951.262 205.544 951.262 205.544C924.455 203.759 897.559 203.759 870.752 205.544C868.967 207.329 870.752 201.379 870.752 201.379H876.9C878.586 201.466 880.272 201.192 881.845 200.577C883.418 199.961 884.841 199.018 886.021 197.81C889.591 199 887.409 191.861 887.409 185.317C885.426 182.541 887.409 173.419 887.409 173.419C888.897 152.89 888.897 132.279 887.409 111.749C889.987 108.18 887.409 101.041 887.409 101.041C887.409 101.041 887.409 93.9025 886.021 91.7212C884.633 89.54 882.055 88.3505 876.701 87.7557C876.701 86.5659 870.752 87.7557 870.752 87.7557V83.591C892.661 81.8058 914.679 81.8058 936.588 83.591C939.562 86.962 936.588 103.421 936.588 103.421C934.01 96.4803 941.942 93.7043 946.899 88.7469C951.857 83.7895 961.375 81.41 975.454 81.41C984.378 77.8407 998.259 84.7808 1007.38 91.7212C1011.66 94.1308 1015.18 97.6957 1017.53 102.009C1019.87 106.322 1020.96 111.209 1020.67 116.112C1022.36 135.442 1022.36 154.883 1020.67 174.213C1020.67 177.386 1020.67 186.111 1020.67 186.111C1019.59 188.063 1019.17 190.307 1019.45 192.517C1019.74 194.727 1020.72 196.789 1022.25 198.405C1019.87 198.405 1026.22 201.776 1031.18 202.173H1036.93C1036.93 205.742 1036.93 206.337 1036.93 206.337H957.607C961.772 207.527 957.607 202.173 957.607 202.173C961.375 199.595 967.522 201.181 968.91 199.198C970.298 197.215 970.893 192.655 970.893 185.714C969.109 188.292 970.893 173.816 970.893 173.816L970.695 119.88Z" fill="#222220"/>
<path d="M857.334 145.448C858.602 154.143 857.418 163.018 853.915 171.076C850.411 179.134 844.728 186.053 837.505 191.056C823.119 201.576 806.093 207.892 788.327 209.3C770.149 209.027 752.601 202.595 738.554 191.056C731.613 185.794 726.144 178.834 722.671 170.847C719.198 162.86 717.839 154.113 718.724 145.448C718.514 136.833 720.178 128.274 723.602 120.365C727.026 112.456 732.127 105.385 738.554 99.6421C752.001 87.3504 769.721 80.803 787.93 81.3987C797 80.5655 806.141 81.7713 814.684 84.9279C823.228 88.0844 830.957 93.1121 837.306 99.6421C849.71 111.708 856.899 128.149 857.334 145.448V145.448ZM805.777 145.448C806.241 140.634 806.241 135.787 805.777 130.973C805.777 120.463 805.777 119.472 805.777 118.083C805.91 110.198 804.425 102.37 801.414 95.0811C800.216 92.5125 798.352 90.3118 796.016 88.7077C793.679 87.1035 790.956 86.1547 788.128 85.9597C785.376 86.3305 782.765 87.3997 780.543 89.0659C778.322 90.7321 776.564 92.9393 775.437 95.4775C772.193 102.554 770.696 110.308 771.075 118.083C771.075 118.083 771.075 125.42 771.075 130.179C770.488 135.252 770.488 140.376 771.075 145.448C770.506 150.389 770.506 155.379 771.075 160.32C770.503 164.664 770.503 169.064 771.075 173.408C770.648 181.315 772.145 189.208 775.437 196.41C779.006 205.333 782.576 205.532 788.327 205.532C791.106 205.173 793.754 204.135 796.037 202.51C798.319 200.884 800.166 198.721 801.414 196.212C804.883 189.138 806.389 181.263 805.777 173.408C805.288 169.325 805.288 165.197 805.777 161.113C805.429 155.765 805.429 150.4 805.777 145.051V145.448Z" fill="#222220"/>
<path d="M127.233 31.6133C131 33.0014 128.621 31.6132 128.621 32.803C127.285 45.989 127.285 59.2762 128.621 72.4622C128.621 72.4622 128.621 73.8501 127.233 73.8501C124.169 72.6746 120.778 72.6746 117.714 73.8501C119.895 76.8246 116.326 73.8504 116.326 72.8589C116.326 71.8674 111.171 43.7093 111.171 43.7093C111.171 40.14 111.171 42.5196 109.981 42.5196C90.166 43.6176 70.3057 43.6176 50.491 42.5196C53.2672 42.5196 49.3013 42.5195 49.3013 43.9075V107.759C52.8707 104.388 49.3012 109.147 50.491 109.147C47.3183 111.725 86.1846 109.147 86.1846 109.147C86.1846 109.147 87.5729 109.147 87.5729 108.156C88.9731 101.226 89.8351 94.1987 90.1508 87.1362C86.9781 84.3601 90.1508 86.1447 91.3406 86.1447C91.3406 82.5754 98.4791 86.1447 98.4791 86.1447C101.652 90.3089 99.6694 86.1446 99.6694 87.3344C100.959 106.084 100.959 124.901 99.6694 143.65C102.842 139.883 99.6689 144.84 98.4791 144.84C97.2893 144.84 91.3406 144.84 91.3406 144.84C91.3406 144.84 90.1508 144.84 90.1508 143.849C88.5645 147.22 87.5729 121.64 87.5729 121.64C87.5729 121.64 87.5727 120.45 86.1846 120.45C89.9523 120.45 50.491 120.45 50.491 120.45C50.491 115.691 49.3013 120.45 49.3013 121.838C49.3013 123.226 49.3013 191.638 49.3013 191.638C52.2758 189.457 49.3012 193.026 50.491 193.026C47.9131 193.026 113.352 193.026 113.352 193.026H114.74L119.896 164.075C119.896 168.437 119.896 163.083 121.085 163.083C122.275 163.083 130.802 163.083 130.802 163.083C130.802 163.083 131.992 163.083 131.992 164.472C132.868 177.677 132.868 190.926 131.992 204.131C129.017 207.898 131.992 205.519 130.802 205.519C129.612 205.519 3.29576 205.519 3.29576 205.519C6.27024 208.096 2.10601 205.519 2.10601 204.131C5.67539 205.519 2.10601 197.389 2.10601 197.389C-0.471878 201.553 2.10596 196.001 3.29576 196.001C1.51106 201.355 25.3073 194.018 25.3073 194.018C25.3073 190.052 26.6949 194.017 26.6949 192.828C25.3068 188.465 26.6949 43.5109 26.6949 43.5109C26.6949 48.0717 26.6954 43.5109 25.3073 43.5109C27.092 39.5449 3.29576 41.3296 3.29576 41.3296C3.29576 37.7603 2.10601 41.3296 2.10601 40.1399C2.63667 37.9238 2.63667 35.6139 2.10601 33.3979C0.123019 37.1655 2.10596 32.2081 3.29576 32.2081C4.48555 32.2081 127.233 31.6133 127.233 31.6133Z" fill="#222220"/>
<path d="M1154.42 241.682C1162.89 231.017 1175.07 223.937 1188.52 221.852C1193.04 221.765 1197.52 222.715 1201.61 224.629C1205.18 230.577 1209.15 230.181 1211.73 235.337C1211.73 239.897 1215.69 246.243 1215.69 252.39C1215.69 251.2 1215.69 371.367 1215.69 371.367C1218.67 372.358 1216.68 375.729 1218.47 377.911C1223.42 376.523 1221.64 382.67 1221.64 385.049C1216.68 382.273 1221.64 390.998 1221.64 390.998C1226.2 392.188 1220.25 395.559 1217.48 395.559C1217.48 390.8 1181.58 395.559 1181.58 395.559C1176.95 390.488 1174.22 383.973 1173.85 377.117C1172.07 374.738 1173.85 258.14 1173.85 258.14C1169.69 258.14 1171.07 249.415 1165.52 249.415C1165.52 251.002 1159.18 249.416 1157.39 252.192C1155.01 257.348 1154.42 256.158 1154.42 258.934C1150.65 260.718 1154.42 372.953 1154.42 372.953C1154.42 372.953 1155.81 377.514 1158.18 379.497C1161.95 375.729 1160.56 382.075 1160.56 383.463C1160.56 384.851 1160.56 390.998 1160.56 390.998C1160.56 390.998 1159.18 395.559 1156.2 395.559C1143.99 396.453 1131.73 396.453 1119.52 395.559C1115.17 390.379 1112.73 383.875 1112.58 377.117C1112.58 372.557 1112.58 258.14 1112.58 258.14C1114.36 252.787 1110.2 249.812 1105.64 249.812C1102.34 250.649 1099.15 251.847 1096.12 253.382C1096.12 251.795 1095.13 253.381 1094.13 254.373C1097.51 254.373 1094.13 373.35 1094.13 373.35C1094.13 373.35 1095.52 377.712 1098.1 379.893C1104.84 379.893 1100.68 382.67 1100.68 384.653C1100.68 386.636 1100.68 391.395 1100.68 391.395C1104.45 397.343 1099.09 395.956 1096.12 395.956C1080.26 396.749 1064.38 396.749 1048.53 395.956C1047.7 395.961 1046.89 395.661 1046.27 395.112C1045.65 394.563 1045.25 393.804 1045.15 392.981C1047.14 392.981 1045.15 384.653 1045.15 384.653C1049.52 386.437 1046.34 381.48 1048.53 379.1C1050.26 377.547 1051.56 375.564 1052.29 373.35C1052.29 371.168 1052.29 245.846 1052.29 245.846C1056.06 238.509 1050.71 240.096 1047.73 238.906C1044.76 237.716 1045.15 236.526 1045.15 233.948C1040.4 237.716 1045.15 227.405 1045.15 227.405C1043.77 220.663 1046.74 223.439 1050.11 223.439C1063.27 221.647 1076.61 221.647 1089.77 223.439C1096.12 219.87 1094.13 224.827 1094.13 227.405C1095.72 224.232 1094.13 240.096 1094.13 240.096C1108.21 231.767 1116.54 221.654 1127.84 221.654C1141.53 219.076 1147.48 229.586 1154.42 241.682Z" fill="#222220"/>
<path d="M1402.62 239.838C1403.61 239.838 1397.66 239.838 1397.66 239.838C1397.66 239.838 1395.28 239.838 1395.08 239.838C1395.08 233.295 1395.08 238.45 1395.08 237.062V227.941C1395.08 220.802 1395.08 225.164 1395.08 224.569C1395.08 223.974 1396.47 224.569 1398.25 223.38C1405.79 226.751 1410.55 219.215 1416.7 213.266C1421.99 208.181 1425.76 201.729 1427.6 194.626C1429.59 196.808 1428.59 190.859 1429.19 190.264C1429.78 189.67 1431.17 190.264 1433.16 190.264C1435.14 190.264 1441.29 190.264 1441.29 190.264C1443.47 193.834 1444.66 191.652 1444.66 194.626C1445.16 204.336 1445.16 214.066 1444.66 223.776H1452.39C1454.18 218.422 1456.75 225.165 1456.75 227.941V237.062C1456.75 242.614 1455.36 241.028 1452.39 241.028C1449.42 241.028 1444.66 241.028 1444.66 241.028C1444.66 244.994 1444.66 371.903 1444.66 371.903C1443.47 380.628 1446.64 379.638 1450.61 381.621C1452.19 380.629 1453.78 383.603 1454.37 384.991C1454.97 386.379 1454.37 388.759 1454.37 392.328C1454.5 393.514 1454.5 394.711 1454.37 395.897C1454.37 397.682 1452.99 395.897 1451.2 395.897C1452.39 391.138 1411.54 395.897 1411.54 395.897C1404.2 393.518 1402.42 382.414 1402.42 371.507C1402.22 368.136 1402.62 239.838 1402.62 239.838Z" fill="#222220"/>
<path d="M1551.88 365.197C1532.05 385.026 1517.37 396.329 1507.66 396.329C1501.91 397.915 1497.74 393.553 1493.97 388C1489.53 382.024 1487.54 374.574 1488.42 367.18C1489.21 341.323 1495.43 315.921 1506.67 292.62C1507.85 292.62 1538.79 286.076 1538.79 286.076H1540.18L1527.68 325.735C1523.3 336.902 1520.62 348.669 1519.75 360.636C1519.92 363.038 1520.53 365.39 1521.54 367.576C1524.71 371.939 1524.31 370.154 1526.3 370.154C1528.28 370.154 1532.84 368.964 1536.21 366.386C1539.58 363.808 1544.74 358.851 1551.88 350.919C1551.49 355.67 1551.49 360.445 1551.88 365.197V365.197ZM1549.7 236.502C1549.7 256.332 1542.36 266.841 1527.29 266.841C1523.93 267.071 1520.56 266.609 1517.39 265.483C1514.22 264.358 1511.31 262.593 1508.85 260.298C1513.43 252.363 1517.22 243.994 1520.15 235.312C1524.88 238.724 1530.41 240.843 1536.21 241.46C1541.14 241.409 1545.91 239.658 1549.7 236.502Z" fill="#222220"/>
<path d="M1368.54 365.637C1364.57 367.62 1360.01 372.181 1356.04 373.768C1352.08 375.354 1348.71 375.948 1346.33 375.948C1340.18 379.32 1334.23 373.569 1328.28 369.009C1323.75 376.346 1317.68 382.611 1310.49 387.371C1303.3 392.13 1295.16 395.27 1286.64 396.571C1282.13 396.407 1277.7 395.339 1273.61 393.431C1269.53 391.524 1265.86 388.816 1262.84 385.467C1259.47 381.452 1256.93 376.809 1255.36 371.806C1253.8 366.802 1253.24 361.538 1253.72 356.317C1254.4 337.998 1261.41 320.48 1273.55 306.743C1279.7 299.971 1287.3 294.671 1295.78 291.238C1304.26 287.805 1313.4 286.327 1322.53 286.914C1325.16 286.212 1327.92 286.062 1330.61 286.471C1333.31 286.88 1335.89 287.841 1338.2 289.293C1339.58 291.475 1343.55 292.664 1344.34 294.846C1345.14 297.027 1345.53 299.605 1345.53 302.777C1345.22 322.754 1340.84 342.458 1332.64 360.68C1334.15 362.788 1336.2 364.452 1338.57 365.499C1340.94 366.545 1343.55 366.935 1346.13 366.629C1354.6 363.826 1362.15 358.75 1367.94 351.955C1367.61 356.523 1367.81 361.115 1368.54 365.637ZM1326.69 295.044C1326.69 293.061 1323.72 295.044 1321.34 295.044C1315.99 295.677 1310.86 297.571 1306.38 300.57C1301.9 303.569 1298.19 307.587 1295.56 312.296C1289.55 324.651 1286.43 338.214 1286.44 351.955C1286.03 358.796 1287.39 365.628 1290.41 371.784C1291.52 373.842 1293.15 375.579 1295.13 376.828C1297.11 378.078 1299.37 378.8 1301.71 378.923C1310.08 376 1317.12 370.157 1321.54 362.465C1314.1 353.386 1309.91 342.077 1309.64 330.341C1309.18 323.484 1310.51 316.626 1313.5 310.438C1316.49 304.25 1321.04 298.946 1326.69 295.044V295.044Z" fill="#222220"/>
<path d="M992.233 221.613C996 223.001 993.621 221.613 993.621 222.803C992.285 235.989 992.285 249.276 993.621 262.462C993.621 262.462 993.621 263.85 992.233 263.85C989.169 262.675 985.778 262.675 982.714 263.85C984.895 266.825 981.326 263.85 981.326 262.859C981.326 261.867 976.171 233.709 976.171 233.709C976.171 230.14 976.171 232.52 974.981 232.52C955.166 233.618 935.306 233.618 915.491 232.52C918.267 232.52 914.301 232.519 914.301 233.908V297.759C917.871 294.388 914.301 299.147 915.491 299.147C912.318 301.725 951.185 299.147 951.185 299.147C951.185 299.147 952.573 299.147 952.573 298.156C953.973 291.226 954.835 284.199 955.151 277.136C951.978 274.36 955.151 276.145 956.341 276.145C956.341 272.575 963.479 276.145 963.479 276.145C966.652 280.309 964.669 276.145 964.669 277.334C965.959 296.084 965.959 314.901 964.669 333.65C967.842 329.883 964.669 334.84 963.479 334.84C962.289 334.84 956.341 334.84 956.341 334.84C956.341 334.84 955.151 334.84 955.151 333.849C953.564 337.22 952.573 311.64 952.573 311.64C952.573 311.64 952.573 310.45 951.185 310.45C954.952 310.45 915.491 310.45 915.491 310.45C915.491 305.691 914.301 310.45 914.301 311.838C914.301 313.226 914.301 381.638 914.301 381.638C917.276 379.457 914.301 383.026 915.491 383.026C912.913 383.026 978.352 383.026 978.352 383.026H979.74L984.896 354.075C984.896 358.437 984.896 353.083 986.085 353.083C987.275 353.083 995.802 353.083 995.802 353.083C995.802 353.083 996.992 353.083 996.992 354.472C997.868 367.677 997.868 380.926 996.992 394.131C994.017 397.898 996.992 395.519 995.802 395.519C994.612 395.519 868.296 395.519 868.296 395.519C871.27 398.096 867.106 395.519 867.106 394.131C870.675 395.519 867.106 387.389 867.106 387.389C864.528 391.553 867.106 386.001 868.296 386.001C866.511 391.355 890.307 384.018 890.307 384.018C890.307 380.052 891.695 384.017 891.695 382.828C890.307 378.465 891.695 233.511 891.695 233.511C891.695 238.072 891.695 233.511 890.307 233.511C892.092 229.545 868.296 231.33 868.296 231.33C868.296 227.76 867.106 231.33 867.106 230.14C867.637 227.924 867.637 225.614 867.106 223.398C865.123 227.165 867.106 222.208 868.296 222.208C869.486 222.208 992.233 221.613 992.233 221.613Z" fill="#222220"/>
<path d="M1421.29 102.914C1423.61 103.91 1406.67 102.914 1406.67 102.914C1406.93 100.984 1406.93 99.0306 1406.67 97.1013C1411.49 99.0943 1416.64 93.4475 1421.95 89.7938C1427.27 86.14 1432.58 82.1543 1437.4 77.5041C1440.72 70.0305 1446.37 68.2033 1449.52 63.7192C1451.81 59.5223 1454.37 55.4734 1457.16 51.5957C1455.5 51.5957 1463.14 51.5957 1463.14 51.5957V94.7759H1491.38C1490.09 97.3734 1489.09 100.102 1488.39 102.914C1488.39 99.7582 1463.14 102.914 1463.14 102.914V161.872V173C1462.43 175.491 1462.43 178.13 1463.13 180.624C1463.83 183.117 1465.22 185.365 1467.13 187.116C1467.13 191.434 1473.44 191.766 1477.59 191.766C1481.74 191.766 1487.22 189.441 1489.88 184.791C1492.11 179.811 1493.41 174.462 1493.7 169.013C1493.7 168.183 1496.69 169.013 1496.69 169.013C1495.86 176.581 1493.43 183.886 1489.55 190.438C1485.56 196.915 1474.6 199.572 1458.99 199.572C1447.7 195.752 1440.06 197.08 1432.42 191.766C1427.43 184.292 1420.79 179.31 1420.79 170.009C1421.46 172.667 1421.29 102.914 1421.29 102.914Z" fill="#222220"/>
<path d="M1312.09 155.863C1302.45 142.033 1293.8 127.549 1286.18 112.517C1279.7 107.368 1280.7 104.379 1278.87 102.719C1280.03 102.719 1274.72 100.061 1271.73 99.7293C1268.74 99.3972 1265.58 99.7293 1265.58 99.7293V96.2413C1289.97 97.738 1314.43 97.738 1338.83 96.2413C1336.67 94.7466 1338.83 99.7293 1338.83 99.7293C1338.83 96.906 1333.01 99.7293 1333.01 99.7293C1327.37 101.722 1329.52 99.7293 1328.69 100.726C1327.86 101.722 1327.37 102.054 1327.37 103.715C1323.71 101.39 1327.37 105.209 1327.37 106.206C1327.37 107.202 1328.36 108.698 1329.69 111.023C1326.54 109.03 1340.49 129.79 1340.49 129.79C1339.16 132.447 1354.44 112.185 1354.44 112.185C1360.08 106.871 1358.09 105.874 1358.09 103.881C1361.58 103.881 1356.26 99.7293 1352.61 99.7293C1351.84 99.3357 1350.98 99.1302 1350.12 99.1302C1349.25 99.1302 1348.4 99.3357 1347.63 99.7293C1350.95 98.4007 1347.63 96.2413 1347.63 96.2413C1359.67 95.1618 1371.79 95.1618 1383.83 96.2413C1387.16 95.0787 1383.83 99.7293 1383.83 99.7293C1385.83 102.553 1381.51 99.7293 1381.51 99.7293C1381.51 99.7293 1378.85 99.7293 1376.69 99.7293C1376.69 100.56 1372.54 100.559 1370.71 101.556C1368.89 102.552 1365.73 105.376 1361.58 110.026C1355.87 118.14 1349.54 125.803 1342.65 132.945C1338.99 132.945 1371.88 182.769 1371.88 182.769C1374.87 185.094 1377.52 191.239 1379.18 192.567C1382.01 196.719 1383.17 195.058 1386.16 195.39C1387.7 195.582 1389.26 195.582 1390.81 195.39C1394.46 197.882 1390.81 198.878 1390.81 198.878C1393.63 196.886 1319.06 198.878 1319.06 198.878V195.39C1319.94 194.863 1320.94 194.586 1321.97 194.586C1322.99 194.586 1324 194.863 1324.87 195.39C1326.2 192.235 1330.36 193.398 1330.36 191.073C1333.01 188.416 1330.36 187.253 1327.86 184.097C1330.36 184.097 1313.91 159.85 1313.91 159.85C1311.09 159.85 1295.81 182.934 1295.81 182.934C1294.69 183.984 1293.8 185.243 1293.17 186.639C1292.54 188.036 1292.2 189.543 1292.16 191.073C1294.81 191.073 1293.98 194.892 1297.64 195.39C1299.53 194.813 1301.56 194.813 1303.45 195.39C1303.17 196.537 1303.17 197.732 1303.45 198.878C1290.52 199.963 1277.52 199.963 1264.59 198.878C1263.09 200.871 1264.59 195.39 1264.59 195.39C1261.1 195.39 1271.4 195.39 1271.4 195.39C1271.4 192.733 1278.37 193.73 1280.53 192.235C1280.53 188.083 1285.01 188.748 1287.67 185.759C1291.62 181.74 1295.23 177.408 1298.47 172.804C1305.11 164.168 1307.77 161.178 1312.09 155.863Z" fill="#222220"/>
<path d="M1224.76 149.032C1226.26 147.538 1229.91 154.513 1229.91 155.841C1229.91 164.311 1226.76 167.799 1220.61 174.442C1210.72 185.373 1197.65 192.924 1183.24 196.033C1175.27 201.68 1172.12 198.026 1164.97 198.026C1161.32 202.344 1150.69 197.029 1143.55 194.87C1134.41 196.199 1130.26 190.054 1125.28 186.234C1120.51 182.659 1116.65 178.019 1114 172.684C1111.34 167.349 1109.97 161.467 1110 155.509C1112.76 137.384 1121.53 120.712 1134.91 108.177C1151.61 98.3909 1170.16 92.1708 1189.39 89.9079C1172.78 81.77 1172.78 73.2998 1172.78 63.8333C1168.96 52.0416 1181.08 45.7305 1197.86 39.0873C1211.98 38.2569 1229.25 30.1191 1246.02 30.1191C1262.8 30.1191 1266.62 33.7728 1270.77 40.9142C1275.75 39.0873 1272.76 45.8966 1272.76 48.72C1273.12 50.0218 1273.22 51.3832 1273.05 52.7237C1272.88 54.0643 1272.44 55.3569 1271.76 56.5257C1269.27 58.0205 1269.94 61.0099 1268.61 63.0028C1266.09 66.4194 1262.44 68.8322 1258.31 69.8122C1255.82 71.473 1253 68.3175 1249.51 65.4942C1246.02 62.6708 1248.02 64.1655 1247.68 63.6673C1249.55 62.0897 1250.97 60.0428 1251.79 57.7371C1252.6 55.4314 1252.79 52.9497 1252.33 50.5469C1252.33 46.561 1248.35 41.7447 1240.38 41.7447C1232.57 44.4019 1221.77 43.4056 1211.64 46.5611C1201.51 49.7166 1193.04 55.5293 1193.04 61.5082C1193.04 67.4871 1201.68 78.9467 1219.12 85.7559C1226.06 88.2333 1233.16 90.2309 1240.38 91.7348C1238.11 97.1 1236.33 102.658 1235.06 108.343C1232.57 113.325 1233.57 109.671 1233.23 109.671C1223.5 106.09 1213.21 104.29 1202.84 104.357C1195.87 103.528 1188.81 104.179 1182.11 106.268C1175.42 108.358 1169.24 111.838 1163.98 116.481C1159.73 118.68 1156.28 122.152 1154.11 126.411C1151.93 130.669 1151.14 135.501 1151.85 140.23C1151.71 143.569 1152.49 146.883 1154.1 149.811C1155.71 152.74 1158.09 155.17 1160.99 156.838C1168.95 159.81 1177.18 161.98 1185.57 163.315C1199.99 163.818 1214.05 158.696 1224.76 149.032V149.032Z" fill="#222220"/>
<path d="M802.296 370.813C783.861 387.421 771.903 396.556 760.278 396.556C757.786 394.064 751.807 394.894 748.818 391.573C748.818 389.414 744.5 383.933 744.5 378.287C744.704 366.181 747.899 354.313 753.8 343.742C756.356 338.515 758.039 332.905 758.783 327.134C756.292 325.141 758.783 323.813 756.126 323.813C758.119 321.986 753.966 323.812 752.306 325.307C750.645 326.802 748.984 327.632 747.157 329.293L741.178 335.272C736.196 338.594 737.192 339.59 735.033 342.081C731.877 342.081 729.054 348.891 729.054 348.891C729.054 348.891 724.902 355.534 724.238 359.021C724.102 364.618 723.378 370.184 722.079 375.629C719.089 379.117 722.079 384.432 722.079 390.743C724.902 389.58 698.661 396.223 698.661 396.223C698.809 389.118 698.421 382.012 697.499 374.965C696.938 364.075 698.287 353.171 701.484 342.745C703.573 330.643 707.911 319.038 714.273 308.533C712.778 308.533 740.182 303.551 740.182 303.551C737.524 316.505 731.047 329.625 729.386 337.929C737.834 328.282 747.055 319.339 756.956 311.19C762.223 307.141 768.47 304.562 775.059 303.717C777.052 305.378 781.702 305.045 784.027 307.703C786.189 310.724 787.455 314.292 787.681 318C786.231 329.45 783.155 340.634 778.547 351.216C777.102 358.319 774.989 365.27 772.236 371.976C773.564 377.29 774.062 378.287 777.55 378.287C785.19 379.615 791.003 371.477 802.629 357.859C803.625 359.852 802.296 370.813 802.296 370.813Z" fill="#222220"/>
<path d="M621.976 249.134C628.573 248.989 635.097 250.549 640.915 253.662C646.734 256.775 651.651 261.336 655.192 266.905C665.943 282.354 670.723 301.178 668.645 319.885C666.32 349.447 664.161 364.228 655.026 377.182C643.733 387.645 634.764 396.614 621.81 396.614C612.871 396.875 604.179 393.66 597.562 387.645C590.824 380.703 585.22 372.745 580.953 364.062C577.423 350.836 575.527 337.226 575.307 323.538C574.921 304.222 579.314 285.11 588.095 267.901C591.621 262.095 596.601 257.31 602.543 254.019C608.485 250.727 615.184 249.044 621.976 249.134ZM629.616 275.541C629.616 265.908 627.124 262.421 621.976 262.421C616.827 262.421 613.838 267.902 613.838 279.029C613.838 282.683 613.838 367.051 613.838 367.051C613.838 375.688 616.329 383.659 621.311 383.659C626.294 383.659 629.616 378.345 629.616 367.051C630.114 366.553 629.616 275.541 629.616 275.541V275.541Z" fill="#222220"/>
<path d="M500.338 265.025C499.507 265.025 500.338 257.884 500.338 257.884C500.338 254.064 501.833 254.396 504.656 254.396C504.656 258.382 537.872 254.396 537.872 254.396C541.194 251.739 541.36 255.559 541.36 257.884C541.36 260.209 541.36 379.619 541.36 379.619C540.198 384.768 541.36 382.443 541.36 382.941C541.36 383.439 542.191 383.937 543.353 384.27C545.014 389.418 547.007 387.425 547.007 390.913C547.167 393.235 547.167 395.566 547.007 397.888C546.011 396.892 545.512 399.051 543.685 399.051C544.682 399.051 502.663 399.051 502.663 399.051C501.002 396.394 501.002 399.051 500.67 397.722C500.338 396.393 500.67 395.065 500.67 391.909C500.67 384.269 501.5 385.765 503.493 385.1C504.988 386.927 506.815 382.941 506.815 380.948C505.985 382.443 506.815 275.488 506.815 275.488C506.815 275.488 505.32 268.845 502.331 268.014C501.334 271.834 500.338 266.686 500.338 265.025ZM529.402 225C536.876 225 541.36 227.657 541.36 232.972C541.061 235.301 540.172 237.515 538.777 239.405C537.381 241.294 535.527 242.796 533.388 243.767C527.933 247.013 521.618 248.519 515.285 248.085C507.479 248.085 502.165 245.095 502.165 239.283C502.577 236.823 503.666 234.527 505.308 232.65C506.95 230.773 509.082 229.389 511.465 228.654C517.188 226.408 523.257 225.171 529.402 225Z" fill="#222220"/>
<path d="M458.793 369.352C452.181 377.063 444.389 383.677 435.707 388.949C430.369 392.437 424.381 394.809 418.102 395.925C411.293 397.917 407.141 393.267 403.321 388.284C399.127 382.399 397.128 375.23 397.674 368.023C398.425 358.163 400.263 348.416 403.155 338.959C405.445 333.669 406.955 328.075 407.639 322.351C407.639 319.196 399.501 322.351 399.501 322.351L402.823 305.743C402.823 308.732 412.954 305.743 412.954 305.743L422.919 272.527C424.58 275.849 451.153 266.713 451.153 266.713C451.153 263.06 440.191 303.584 440.191 303.584L455.139 302.754C453.271 308.118 452.099 313.699 451.651 319.362C450.655 317.203 435.043 320.524 435.043 320.524C433.41 328.628 431.076 336.574 428.067 344.274C426.302 350.757 425.025 357.363 424.248 364.037C424.248 370.348 424.247 370.016 426.739 372.009C428.898 377.157 430.559 375.164 433.216 375.164C435.873 375.164 440.357 374.002 444.011 371.843C447.665 369.684 452.648 364.701 459.457 357.394C458.898 361.354 458.676 365.355 458.793 369.352V369.352Z" fill="#222220"/>
<path d="M310.546 292.974C306.713 293.356 303.132 295.058 300.415 297.79C297.094 297.79 295.599 304.931 293.938 309.415C292.163 314.275 291.1 319.365 290.783 324.529C290.783 332.999 289.786 335.158 289.786 340.306C289.926 352.071 292.176 363.715 296.429 374.685C298.26 379.303 301.521 383.213 305.735 385.843C309.949 388.473 314.894 389.685 319.847 389.3C327.223 388.328 334.304 385.779 340.607 381.826C349.41 379.169 351.071 370.533 354.06 362.727C351.735 362.727 357.382 364.554 357.382 364.554C349.908 388.137 330.31 396.607 305.232 396.607C289.882 397.22 274.869 391.999 263.213 381.992C257.053 377.628 252.183 371.685 249.115 364.788C246.046 357.891 244.892 350.295 245.774 342.798C245.151 335.431 246.338 328.024 249.233 321.221C252.128 314.419 256.642 308.427 262.382 303.769C274.141 293.696 289.261 288.419 304.734 288.988C310.687 287.971 316.807 288.722 322.338 291.147C327.547 292.534 332.609 294.425 337.452 296.794C342.454 299.422 346.997 302.843 350.904 306.924C356.883 314.398 357.382 316.557 357.382 322.37C357.472 327.172 355.684 331.82 352.399 335.324C347.965 338.294 342.786 339.963 337.452 340.14C332.635 343.13 326.656 338.147 322.172 334.161C319.823 332.856 317.919 330.877 316.706 328.479C315.492 326.081 315.024 323.375 315.363 320.709C312.207 317.387 315.363 313.069 317.688 309.415C322.338 303.437 320.013 302.772 320.013 300.281C320.013 297.79 320.013 296.129 317.522 294.634C319.183 291.147 313.702 292.974 310.546 292.974Z" fill="#222220"/>
<path d="M216.77 373.296C209.845 381.556 201.662 388.674 192.522 394.388C190.671 396.134 188.47 397.467 186.065 398.297C183.66 399.128 181.105 399.437 178.571 399.204C165.783 400.201 161.963 389.406 161.963 369.642C157.211 378.502 150.51 386.169 142.365 392.063C133.895 395.218 130.241 399.204 123.93 399.204C117.619 399.204 112.47 396.215 107.322 390.402C104.729 387.525 102.792 384.119 101.645 380.42C100.498 376.721 100.168 372.817 100.678 368.978C100.439 358.237 103.513 347.684 109.481 338.751C116.376 329.85 124.546 322.015 133.729 315.5C141.096 310.972 149.276 307.925 157.811 306.532C161.828 306.268 165.821 307.327 169.18 309.546C172.539 311.765 175.079 315.023 176.412 318.822C183.239 314.201 190.465 310.199 198.003 306.864C196.84 309.521 203.982 306.864 203.982 306.864C203.982 304.207 194.515 337.755 194.515 337.755C190.861 355.525 187.374 364.161 187.374 369.808C187.037 370.843 186.946 371.942 187.11 373.018C187.273 374.093 187.686 375.116 188.316 376.004C188.945 376.891 189.774 377.619 190.735 378.13C191.696 378.64 192.763 378.918 193.851 378.943C197.27 378.487 200.463 376.978 202.985 374.624C208.798 373.628 210.791 367.151 216.936 361.172C217.472 365.2 217.416 369.284 216.77 373.296ZM139.21 379.275C146.351 380.769 152.994 373.13 159.14 361.172C164.857 350.996 168.1 339.617 168.606 327.956C168.324 324.767 167.421 321.664 165.949 318.822C165.16 317.685 164.083 316.778 162.828 316.194C161.573 315.61 160.185 315.371 158.807 315.5C150.835 314.337 145.023 321.479 138.711 333.437C133.295 343.736 130.071 355.045 129.245 366.653C128.977 369.998 129.986 373.321 132.068 375.953C133.729 376.119 136.718 379.275 139.542 379.275H139.21Z" fill="#222220"/>
<path d="M73.3879 372.259C68.6199 379.108 62.5377 384.94 55.4952 389.417C48.4526 393.893 40.5903 396.924 32.3655 398.334C28.5455 399.496 24.3935 396.507 21.4041 392.853C18.4146 389.199 17.0859 384.715 17.0859 379.401C18.3319 364.658 24.1365 350.669 33.6941 339.376C28.4233 341.963 22.8413 343.861 17.0859 345.023C11.4049 355.207 4.11375 364.404 -4.50495 372.259C-4.89254 372.45 -5.31863 372.549 -5.75052 372.549C-6.18242 372.549 -6.6085 372.45 -6.99609 372.259C-4.83702 374.584 -6.99609 362.793 -6.99609 362.793C-1.34928 354.489 3.46702 350.835 7.95126 344.358C2.96877 340.704 -1.18322 337.715 -1.18322 332.401C0.255056 326.723 2.14324 321.17 4.46353 315.793C6.04662 313.103 8.27004 310.847 10.9358 309.224C13.6016 307.601 16.627 306.663 19.7431 306.492C26.0543 306.492 27.8813 309.315 27.8813 314.961C27.8813 320.608 26.3865 325.757 23.231 334.061C30.016 332.154 36.2853 328.747 41.5751 324.09C46.8648 319.432 51.0396 313.645 53.7902 307.156C56.9961 307.409 60.217 307.409 63.423 307.156C63.423 305.994 53.624 334.393 53.624 334.393C49.9702 344.857 46.9808 353.492 45.6521 357.644C44.8099 361.248 44.2546 364.914 43.9913 368.606C42.4966 371.097 43.9912 373.92 45.9842 375.747C47.9772 377.574 49.1398 378.404 51.465 378.404C53.7902 378.404 56.4475 377.408 58.7727 375.747C64.8437 371.646 70.4173 366.853 75.381 361.465C75.0488 358.143 73.3879 372.259 73.3879 372.259Z" fill="#222220"/>
</svg>
