<svg width="521" height="624" viewBox="0 0 521 624" fill="none" xmlns="http://www.w3.org/2000/svg">
<path d="M516.747 0C520.291 7.09899 521 0.000519925 521 4.96982V146.95C507.532 139.141 521 151.92 516.747 151.92C512.494 151.92 482.014 151.92 482.014 151.92C475.635 166.827 477.762 151.92 477.762 148.371C473.509 134.173 459.331 43.3028 459.331 43.3028C465.002 25.5553 459.33 43.3028 454.369 43.3028C442.318 58.2107 304.804 43.3028 304.804 43.3028C316.145 61.0503 301.258 43.3026 301.258 47.562C289.917 33.3641 301.258 579.276 301.258 579.276C301.258 579.276 301.258 582.825 305.511 583.535C291.334 567.208 393.409 590.637 393.409 590.637C402.624 609.804 398.369 590.637 398.369 595.607C411.129 595.607 398.369 619.741 398.369 619.741C411.837 608.382 398.371 624 393.409 624C388.447 624 128.3 624 128.3 624C123.338 607.672 123.34 624 123.34 619.741C138.935 610.512 123.34 595.607 123.34 595.607C123.34 595.607 123.338 591.347 128.3 590.637C157.506 590.61 186.663 588.234 215.489 583.535C209.818 583.535 220.451 583.535 220.451 579.276C220.451 575.017 220.451 47.562 220.451 47.562C209.11 61.76 220.45 43.3028 216.906 43.3028C166.921 47.9327 116.616 47.9327 66.6314 43.3028C75.1375 43.3028 62.3785 43.3028 62.3785 43.3028C75.8465 43.3028 43.9479 148.371 43.9479 148.371C43.9479 148.371 43.9496 151.92 38.9877 151.92C27.9704 155.761 15.9797 155.761 4.96242 151.92C13.4685 156.179 0 151.919 0 146.95C15.5945 158.308 0 4.96982 0 4.96982C0 4.96982 0.000519151 0 4.96242 0H516.747Z" fill="white"/>
</svg>
